<?xml version="1.0" encoding="utf-8"?>
<!-- Generator: Adobe Illustrator 23.0.1, SVG Export Plug-In . SVG Version: 6.00 Build 0)  -->
<svg version="1.1" id="Layer_1" xmlns="http://www.w3.org/2000/svg" xmlns:xlink="http://www.w3.org/1999/xlink" x="0px" y="0px"
	 viewBox="0 0 595.3 841.9" style="enable-background:new 0 0 595.3 841.9;" xml:space="preserve">
<g>
	<g>
		<path d="M172.4,225.1c49.2,25.1,102,42.3,156.7,50.5c4.4,0.7,7.1-3.7,4.3-7.5c-19.2-24.5-38.4-48.9-57.4-73.4
			c-15.5-19.7-39.3-51.3-16.9-75.2c2.3-2.5,1.2-6.4-2-7.5c-26.5-8.4-50.5-21.9-71.4-40c-1.4,2.5-2.8,5-4.3,7.5
			c9.9,1.4,19.2,4.8,27,11c3.9,3,7.3,6.4,10.1,10.3c1.8,2.5,3,6,5.7,7.8c8,5.5,20.6-2.7,17.4-12.3c-0.7-2.3-3-3.7-5.5-3
			c-46.5,13.7-75.5,65.9-65.4,112.8c1.2,5.5,2.8,10.7,5.2,15.8c3.9,9.1,10.1,17.6-0.5,24.7c-6.2,4.1-13.5,6.6-20.1,9.6
			c-9.6,4.4-19.4,8.7-29,13.1c-9.4,4.3-29.7,9.2-29.1,22.9c0.2,5.9,4.4,9.8,8.2,13.9c5,5.5,9.2,11.7,12.6,18.3
			c14.9,29.8,12.1,68.2-8.7,94.7c-2.8,3.6,0.9,10.1,5.3,6.9c24.5-16.9,51.7-29.5,80.5-36.8c28.4-7.3,60.1-11,83.9,9.4
			c18.1,15.6,29,41,24,64.8c-5,23.8-24.9,43-47.8,49.9c-11,3.4-26.1,5.2-36.8-0.4c-4.4-2.3-9.1-6.2-5.3-11.2c2.1-2.8,5.2-3.9,8.5-5
			c8.2-2.8,16.9-4.4,25.4-5.5c27.9-3.4,56.1-1.4,83.3-9.6c45.5-13.5,90.6-48.9,106.2-95.1c20.8-61.6-47.8-102.2-88.7-133.6
			c-0.4,2.7-0.7,5.3-1.1,8.2c9.1-3.7,18.5-4.1,27.5,0c0.4-2.7,0.7-5.3,1.1-8.2c-32.2,13.3-64.3,26.3-96.5,40
			c-10.8,4.6-20.8,10.5-25.6,21.7c-4.8,11-4.1,23.6-1.4,35.2c6.9,29.3,27.5,52.6,37.5,80.7c5.2,14.7,8,31.6,2.3,46.7
			c-5.3,14.6-17.9,24.5-30.7,32.5c-32.7,20.4-67,38.6-100.2,57.7c1.4,2.5,3,5.2,4.4,7.6c19.5-11.4,38.7-26.3,47.1-48
			c6.9-17.8,4.4-40.3-9.1-54.4c-14.9-15.6-37.7-14-55.3-4.1c-16.5,9.2-38.2,30.4-34.5,51.2c5.3,29.8,41.4,29,64.1,25.9
			c-1.6-2.1-3.4-4.3-5-6.6c-12.3,19.4-25.1,42.6-21.5,66.4c3.4,22.2,22.4,35.4,43.2,39.6c23.3,4.6,48.5,0.9,70.4-8.2
			c11.5-4.8,22-11.4,31.8-19.2c10.8-8.5,21.3-18.7,34.6-23.6c14.4-5.5,25.6-3,37.5,5.9c8.5,6.2,17.2,6.8,26.8,2.5
			c18.7-8.2,29.5-26.5,41.2-41.9c7.1-9.2,14.9-17.9,25.4-23.6c9.9-5.3,20.8-8.4,31.3-12.6c18.3-7.6,32.9-20.8,34.6-41.6
			c2-22.2-10.1-44.6-27.7-57.6c-22.7-16.7-51.5-21-78.7-24.7c-3.4-0.5-6.2,1.8-5.5,5.5c9.8,44.8,3.7,100.6-38.6,127
			c-17.4,10.8-39.3,16-59.5,10.3c-10.7-3-22.7-9.4-27.5-19.7c-6.2-13.1,1.6-28.1,7.8-39.4c23.3-42.8,59.7-75.2,103.2-96.3
			c35-17.1,86.7-43.2,76.6-91.1c-4.6-21.9-24.2-36.2-43.9-43.9c-26.1-10.1-55.4-10.7-82.4-3.9c-3.6,0.9-3.9,5-2,7.5
			c24.3,31.1,45.7,67.2,50.5,107.1c3.9,32.7-5,68.2-28.1,92.4c-21.7,22.7-53.8,30.2-83.1,18.1c-32.2-13.1-46.4-45.3-34.3-78
			c13.7-37.3,48.3-66.1,75.2-94.2c7.3-7.5,14.6-15.1,21.7-22.6c5.5-5.9,11.4-12.4,13.5-20.6c3.6-13.9-6.8-24-18.7-28.8
			c-18.1-7.5-38.7-10.7-57.9-13.7c-20.1-3.2-40.5-5.2-60.9-5.5c-9.9-0.2-20.1-0.2-30,0.4c-5.9,0.4-12.8,0.5-15.3,6.8
			c-2.5,6,1.4,13,3.9,18.5c4.1,9.1,8.9,17.8,13.7,26.5c19.9,36.1,47.3,82.8,24.9,124c-18.5,34.1-62.5,41.2-97.2,46.2
			c-3.2,0.5-3.7,4.3-2.7,6.6c7.6,17.4,13.3,35.5,16.3,54.4c1.4,8.9,3.7,19.5,1.8,28.6c-2.1,9.4-10.3,13.9-19,16
			c-26.3,6.8-56.7-0.9-79.1-15.5c-23.3-15.3-38.7-40.3-35.7-68.8c3.6-34.5,29.1-64.8,51.2-89.9c41.4-47.1,110.2-92.2,173.6-57.9
			c21.5,11.5,46.4,45.8,74.3,28.8c12.3-7.5,15.1-23.5,17.8-36.4c3.4-16.3,5.7-33,6.4-49.7c1.8-35.7-2.3-71.8-12.3-106.2
			c-3.9-13.3-9.9-27-9.1-41.2c0.4-6.8,2.7-13.3,8.7-16.9c9.4-5.3,21.3,0,30,4.3c29.8,14.7,62.7,32.2,81.4,60.8
			c19.2,29.5,17.9,64-5.9,90.3c-21.9,24-52.1,35.7-81.2,48c-14.4,6-28.6,12.1-41.9,20.3c-10.5,6.4-25.6,15.3-29,28.1
			c-3,12.1,5.9,22.6,14.7,29.3c13.1,10.1,28.2,18.1,42.6,26.1c30.6,17.2,62.4,32.7,94.7,46.2c16.3,6.8,32.9,13.1,49.4,18.8
			c15.5,5.3,31.4,9.4,46.5,15.5c13.5,5.5,28.1,14.6,28.8,30.6c0.7,16.5-13.5,30.4-25.2,40.2c-51.5,43.3-114.6,74.4-179.3,91.9
			c-16,4.3-32.2,7.8-48.3,10.5c1.1,2.7,2.3,5.3,3.4,8.2c46.9-34.6,106.2-50.3,164.2-42.3c5.5,0.7,8-7.6,2.3-8.5
			c-59.7-10.1-117.6-29.5-171.1-57.9c-26.6-14-52.1-30.2-76-48.3c-22.9-17.4-44.9-39.4-45.1-70.4c-0.7-63.1,62.5-97.9,106.1-130.8
			c23.8-18.1,43.7-40.2,65.6-60.4c22.2-20.6,49-39.3,80.3-41.2c30.6-2,56,16.2,69.8,42.5c15.1,28.4,15.3,62.7,11.9,94
			c-3.2,29-12.1,58.5-33,79.4c-18.3,18.3-43,28.2-68,32.7c-12.8,2.3-25.9,3-39.1,2.8c-12.3-0.2-27.5,0.2-38.7-4.8
			c-18.8-8.2-1.4-27.4,9.2-33.9c12.4-7.5,27.4-11.9,41.4-14.9c53.5-12.1,122.9-1.4,161,41.2c20.1,22.6,22.4,52.2-1.1,73.2
			c-22,19.7-54.5,27.5-83.3,30.4c-60.8,5.9-121-9.4-181.2-12.6c-15.1-0.9-30-0.9-45.1,0.2c-3.9,0.4-5.7,4.6-3.2,7.6
			c33.8,38,81.9,56.5,124.7,81.9c21.1,12.6,45.8,28.1,58.5,49.9c8.2,13.9,9.2,30.7-7.6,38c-14.6,6.4-31.8,8.4-47.4,9.1
			c-107.1,4.6-239.3-61.8-236.8-183.7c1.2-57,40.3-100.2,89.5-124.4c28.6-14.2,60.1-22,91.1-28.4c7.1-1.4,14-2.8,21.1-4.3
			c6.6-1.2,14.2-1.8,20.3-4.4c9.8-4.3,10.3-13.7,4.8-21.9c-6.6-9.8-17.8-17.8-27-24.7c-10.1-7.6-20.6-14.6-31.4-21
			c-22.7-13.5-46.7-24.9-70.2-37.1c-23.3-12.3-46.4-25.4-66.4-42.5c-5-4.3-11-8.9-14.2-14.6c-4.6-8.2-0.7-15.8,5.9-21.3
			c11-9.4,26.8-13.9,40.5-17.8c27-7.8,56.5-11.7,84.4-6.6c21.5,3.9,44.6,13.1,57.4,31.8c17.1,24.7,7.3,54.5-9.6,76.6
			c-16.9,22-40.5,37.7-59.2,58.1c-15.6,17.2-32,40.9-15.6,63.1c15.1,20.6,43.9,31.8,67,40.7c26.8,10.1,54.7,16.9,82.1,24.5
			c6.8,2,13.5,3.9,20.3,6c6.6,2.1,16.9,3.7,22.2,8.2c14.2,12.1-23.3,28.2-31.6,31.6c-25.9,10.5-53.7,14.9-80.5,22.6
			c-10.3,2.8-57.4,13.5-42.1,33c2.7,3.6,6.9,5.3,10.8,6.9c8,3.4,16.2,6.4,24.3,9.6c15.5,6,30.9,12.1,46.4,18.3
			c23.6,9.4,51.7,21.3,61.3,47.1c7.6,20.4,2.5,44.9-11.9,61.1c-16.2,18.1-42.1,20.6-63.1,9.6c-24.5-13-34.3-37.8-27.2-64.5
			c6.9-26.3,22.9-57.6,47.3-71.6c22.6-13,58.1-6.9,61.3,23.3c3.2,31.8-26.8,51.9-52.8,61.6c-51.9,19.7-113,15.8-160.6-13.5
			c-45.3-27.9-75.9-79.2-77.3-132.7c-0.4-13.7,0-30.2,7.3-42.3c7.3-12.3,21.1-16.5,34.3-19.4c32.5-6.8,65.9-10.7,99-14
			c32.2-3.4,64.3-5.7,96.5-6.9c4.8-0.2,6.4-7.8,1.2-8.7c-37.5-6.6-75-13.1-112.3-21c-18.1-3.9-36.1-8-53.8-12.6
			c-15.5-3.9-31.1-8.4-44.6-16.9c-28.6-17.8-35.5-52.4-32.9-84c2.3-28.6,13.3-56.1,29.8-79.4c32.9-46.5,87.9-74.4,145.3-68
			c54.7,6,106.4,41.2,130.6,91c15.3,31.6,19.4,69.1,2,100.7c-15.3,27.5-41.9,47.3-69.1,61.6c-47.4,25.2-154.7,59.7-166.6-22.2
			c-4.8-33.2,14.9-64.3,37.8-86.3c22.2-21.5,49.9-37,79.1-46.4c60.2-19.7,133.2-18.7,189.9,11.5c27.7,14.7,51.3,37.3,65,65.7
			c14,29,14.4,61.6,4.4,92c-21.5,65.2-81,104.8-140,133.4c-14.7,7.1-29.7,13.7-44.6,20.4c-4.4,2-1.6,7.8,2.3,8.4
			c27.5,2.8,54.2-8.4,81.5-6.2c12.1,0.9,24.9,4.6,33.6,13.5c9.9,10.3,12.1,25.4,9.1,38.9c-5.7,25.8-28.2,45.5-47.6,61.5
			c-20.4,16.9-43,30.9-67,41.9c-26.6,12.3-55.1,20.6-84.2,24.9c1.1,2.7,2.3,5.3,3.4,8.2c32.7-18.5,68.8-30.4,106.1-34.5
			c17.8-2,35.7-2.3,53.5-0.9c16,1.2,37.3,2.3,51,11.9c8.2,5.7,10.5,15.1,6.8,24.2c-4.1,9.9-13,15.8-22.9,18.8
			c-15.8,5-33.8,5-50.3,5.9c-34.6,2-69.5,2-103.8-2.3c-33.8-4.1-67.3-12.4-98.1-27c-15.5-7.3-30-16.2-43.5-26.5
			c-14-10.7-27.4-20.8-45.1-24.3c-17.2-3.4-34.6-2-51.9-1.2c-5.3,0.2-10.3-0.5-7.5-7.5c1.8-4.3,5.2-7.6,8.4-11
			c6-6.6,12.6-12.4,19.5-18.1c26.1-21.3,56.1-37.8,77.8-64.1c21.1-25.6,31.4-58.5,17.2-89.9c-13.1-28.8-42.8-49.2-74.8-48.3
			c0.4,2.8,0.7,5.9,1.2,8.7c46.7-13.7,94.2-29.5,133.8-58.5c15.8-11.5,38.6-27.9,36.6-50.1c-1.8-19.4-21-29.8-35.7-38.9
			c-25.2-15.6-47.3-35.7-65.4-59.3c-0.9,2.1-1.8,4.3-2.7,6.6c40.5-10.8,83.5-8.5,122.6,6.2c19.2,7.3,38.6,17.6,53.8,31.3
			c8.2,7.3,17.9,18.7,14.4,30.6c-3.4,11-16,17.1-25.1,22.7c-20.6,12.8-41,25.4-61.6,38.2c-16.5,10.1-33.2,20.1-48.3,32.5
			c-28.2,23.3-45.1,56.5-34.3,93.3c10.7,36.2,42.8,60.4,79.6,65.9c21,3.2,91-0.5,65.6-38.9c-5.5-8.4-13.7-14.2-21.3-20.3
			c-9.9-8-20.1-16-30-24c-16.7-13.3-34.5-26.1-49.6-41.2c-14.9-14.9-26.6-34.3-21.3-56.1c5.3-21.9,22.6-40.3,38-55.8
			c15.5-15.3,39.8-40.7,64-33c21.7,6.9,32.9,31.4,38,51.7c11.4,44.2,0.5,93.3-28.2,128.6c-3,3.7,0.7,9.8,5.3,6.9
			c28.8-18.1,56.9-37.3,83.9-57.9c13.1-9.9,26.3-20.3,39.1-30.9c9.8-8.4,19.7-17.6,24.5-29.7c11.4-29-12.8-58.5-21.7-84.9
			c-10.8-32.3-13.5-67-8-100.6c0.9-5.5-7.6-8-8.5-2.3c-4.8,29.5-3.9,59.7,3.2,88.8c3.6,14.6,8.9,28.4,15.3,41.9
			c6.9,14.4,16,30,13.3,46.7c-2.3,14.4-13.7,24.7-24.3,33.8c-13,10.8-26.3,21.3-39.8,31.6c-26.3,19.7-53.5,38.4-81.2,56
			c1.8,2.3,3.6,4.6,5.3,6.9c24.9-30.6,37.7-69.8,35-109.3c-2.1-32.2-16-80.3-53.3-87.1c-19.2-3.4-35.5,8.4-49.6,19.9
			c-16.9,13.9-32.5,29.7-44.9,47.6c-11.5,16.5-19,36.4-13.5,56.7c4.8,17.8,17.8,32.2,31.3,44.2c17.6,15.8,36.8,30,55.3,44.8
			c11.7,9.2,62.2,42.1,27.7,53.8c-40,13.7-90.8-1.1-112.5-38.4c-10.3-17.8-14.2-39.8-7.8-59.7c6.6-20.6,22.7-36.2,39.6-48.7
			c17.9-13.1,37.5-24.3,56.5-36.1c20.1-12.4,42.1-23.6,60.6-38.2c43.2-34.5-25.6-74.6-53.5-86.5c-42.8-18.1-91-21.7-135.7-9.6
			c-2.5,0.7-4.4,4.3-2.7,6.6c16.9,22,36.8,41.2,59.7,56.9c10.3,7.1,22.2,12.6,31.3,21.3c12.4,12.1,10.3,26.6-1.1,38.9
			c-18.8,20.6-45.7,35.4-70.9,46.9c-26.8,12.3-54.9,21.3-83.1,29.5c-4.6,1.4-3.9,8.9,1.2,8.7c34.3-1.1,65.7,25.8,72,59.2
			c6.9,37.1-21.7,69.1-48.3,90.4c-14.7,11.7-30.6,22-45.3,33.8c-12.1,9.4-28.8,21.5-34.6,36.2c-2,5-2.7,11,1.1,15.3
			c4.4,5.2,11.9,4.1,17.9,3.7c20.4-0.9,42.1-3,61.3,5.7c17.2,7.6,31.1,21.9,46.9,31.8c14.6,9.1,30.2,16.5,46.4,22.6
			c33.2,12.4,68.6,18.7,103.8,21.1c36.4,2.7,73.2,1.4,109.6-2.1c15.8-1.6,33.2-4.1,44.8-16c9.4-9.8,14.2-24.9,7.1-37.3
			c-8.9-15.5-29.7-18.5-45.7-20.8c-20.6-3-41.4-3.9-62.2-2.3c-42.6,3.2-84,15.6-121.2,36.6c-4.6,2.7-1.2,8.9,3.4,8.2
			c57.7-8.7,112.6-33.4,157.4-71.1c20.4-17.2,43.3-38.7,48.3-66.3c4.6-25.1-7.3-48.3-31.6-57c-33.4-11.9-67.7,5.9-101.6,2.1
			c0.7,2.8,1.4,5.5,2.3,8.4c65.6-29.1,135.9-61.3,173.6-125.8c16.7-28.4,25.9-61.8,21.1-94.9c-4.6-32.3-22.4-61.5-46.4-83
			c-52.6-47.1-132-56.3-199.2-43.5c-61.8,11.9-134.1,51.2-151.9,116.4c-7.6,28.2-0.9,61.8,23.3,80.3c27.7,21.1,67.3,13.5,98.2,5
			c61.3-17.1,137.7-60.2,141.1-131.8c3-64.5-45.3-122.2-102-146.8c-56.5-24.5-120.3-17.1-168.6,21.3
			c-47.1,37.5-77.6,102.5-63.8,162.9c3.4,15.1,10.5,29.7,21.9,40.5c12.1,11.5,27.7,18.1,43.3,23.1c39.4,12.3,80.7,19.7,121.2,27.2
			c20.4,3.7,40.9,7.3,61.3,10.8c0.4-2.8,0.7-5.9,1.2-8.7c-36.8,1.4-73.6,4.3-110.3,8.5c-17.6,2-35.2,4.4-52.6,7.1
			c-15.8,2.5-32.5,4.1-47.6,9.1c-12.6,4.3-23.3,11.7-29,24c-5.7,12.3-6.8,27-6.6,40.3c0.2,27.4,7.8,54.5,21,78.7
			c27.9,51,79.1,83.1,136.3,89.9c30,3.6,60.9,0,89.4-10.1c25.2-9.1,51.7-24.3,59.9-51.7c7.3-24.2-3.9-49.9-29.1-56.7
			c-25.4-6.8-49.7,6.2-65.6,25.6c-17.4,21.5-33.6,53.7-32,81.9c1.4,23.3,17.2,42.8,38.2,52.1c20.3,9.1,44.2,8.2,62-5.7
			c17.6-13.7,27-37,25.6-59c-1.6-25.2-17.8-44.1-39.1-56.5c-12.4-7.3-26.1-12.4-39.4-17.6c-17.2-6.8-34.6-13.7-51.9-20.4
			c-4.3-1.6-8.7-3-12.8-5.2c-3.7-2-4.4-1.4-3-5.9c1.2-4.4,0.5-2.7,3-4.6c6.2-4.8,16.9-6.9,24.3-9.2c14.9-4.6,30.4-8.2,45.7-11.9
			c15.6-3.9,31.1-8,46-14.2c11.7-5,25.9-10.8,33.8-21.3c21.1-27.5-30.7-35.7-47.4-40.5c-31.4-8.9-63.4-16.3-93.5-29.1
			c-14.6-6.2-29.8-13.5-42.1-23.6c-5.7-4.8-11.2-10.7-13.3-17.9c-2.8-10.1,2.1-19.7,7.6-27.9c17.4-26.1,45.3-42.8,65.6-66.4
			c17.8-20.6,32-48.3,24.3-76.2c-6-21.7-24-36.8-44.1-45.5c-24.9-10.7-52.2-12.1-78.7-8.9c-16.3,2-32.3,5.5-47.8,10.8
			c-12.8,4.4-27,9.2-36.6,19.4c-21.5,22.6,7.3,43.7,24.7,56.7c23.5,17.4,49.6,30.6,75.5,43.9c26.3,13.3,52.8,26.6,76.6,44.2
			c5.9,4.3,11.5,8.9,16.9,13.7c4.6,4.1,20.8,17.6,8.4,21.1c-16.7,4.6-34.3,6.4-51.2,10.3c-58.3,13-119.9,36.4-153.5,89.2
			c-30.6,48-24.9,110.5,3.7,158.1c30.6,51,86,82.1,142.5,95.6c30.9,7.5,63.8,11,95.4,6.9c24-3,58.8-10.7,52.6-42.5
			c-5-25.8-30.2-44.6-50.5-58.5c-23.8-16.2-49.7-28.6-74.8-42.5c-24.2-13.5-47.4-28.4-65.9-49.2c-1.1,2.5-2.1,5-3.2,7.6
			c70.9-4.8,140.5,16.3,211.2,13.5c31.4-1.2,65-7.5,92.2-24.7c22.7-14.4,38.7-38.9,30.6-66.3c-8.4-28.2-34.8-47.8-60.4-59.3
			c-28.2-13-59.5-18.8-90.6-17.6c-15.8,0.7-31.4,3.2-46.5,7.6c-13.7,3.9-28.4,9.1-39.6,18.1c-8.5,7.1-17.4,18.3-14.4,30.2
			c3,12.4,16.2,16.2,27.4,17.6c53.8,7.3,118.3-1.4,152.4-48.5c18.7-25.8,24.5-58.5,26.1-89.5c1.8-33-2.5-68.4-23.1-95.6
			c-17.8-23.6-44.9-36.2-74.6-32.7c-32.5,3.9-59.9,23.6-83,45.5c-12.8,12.1-24.9,25.1-37.8,37c-13.1,12.3-27.5,22.9-42.1,33.4
			c-26.1,18.7-53.3,37.3-71.6,64.3c-16.2,23.8-25.9,54.7-16.9,83c9.4,29.1,35.5,48.5,59.5,65.6c55.8,39.6,118.9,68.9,184.9,86.3
			c16.9,4.4,33.8,8,51,11c0.7-2.8,1.6-5.7,2.3-8.5c-60.2-8.2-121.9,7.1-170.9,43.2c-4.1,3-1.6,8.9,3.4,8.2
			c71.4-11.9,140.2-39.4,199.9-80.7c22.6-15.6,59.5-37.8,59.7-69.1s-35.2-40.9-59-48.3c-37.8-11.9-75-26.5-110.9-43.7
			c-17.4-8.4-34.5-17.1-51.3-26.5c-16-8.9-34.6-17.6-48.1-30c-8.2-7.6-11-16.7-2.7-25.4c6.2-6.4,14.4-11.4,22-16
			c15.8-9.2,32.7-16,49.6-22.9c29.5-12.3,59.3-26.5,79.1-52.6c19.5-25.8,20.6-57.9,5.5-86.2c-16.7-31.1-48-49.9-78.3-65.9
			c-12.8-6.8-28.4-16.3-43.5-12.4c-12.1,3.2-18.3,14-19.2,25.9c-0.9,14.4,4.3,28.1,8.4,41.6c6,19.9,10.1,40.5,11.9,61.3
			c1.8,19.5,1.8,39.3,0,58.8c-0.9,9.9-2.3,19.7-4.3,29.5c-1.8,9.2-3.2,19.9-7.8,28.1c-12.1,21.7-37,5.9-50.3-5.2
			c-12.4-10.1-24.9-18.8-40.3-23.5c-68.9-21.1-132,25.9-173.6,76C25.9,394.6,3.1,424.3,1,458.9c-1.6,27.5,12.4,52.2,33.8,68.8
			c21.9,16.7,50.6,25.4,78.2,23.3c12.3-0.9,26.3-3.7,34.5-13.9c10.1-12.8,5.3-32.5,2.7-46.9c-3.4-18.5-9.2-36.2-16.7-53.3
			c-0.9,2.1-1.8,4.3-2.7,6.6c31.3-4.4,66.4-10.5,89.9-33.6c25.8-25.4,25.6-63.6,14.4-95.8c-6.6-18.5-16.3-35.5-25.8-52.6
			c-5.2-9.2-10.1-18.3-14.4-27.9c-0.7-1.8-2.8-5.3-2.8-6.8c0.2-6,4.8-5,8.2-5.2c6-0.2,12.3-0.4,18.3-0.4c22.9,0,45.8,1.8,68.6,5.3
			c9.9,1.6,19.7,3.6,29.5,5.7c10.1,2.3,21.3,4.3,30.7,9.1c25.9,13.5-6.2,38.9-17.8,51c-15.5,16-31.1,31.8-46,48.3
			c-23.1,25.6-47.1,58.5-39.8,94.9c5.3,26.8,29,45.7,54.5,52.2c29,7.5,58.6-1.1,79.8-22.2c25.1-25.1,36.1-62.5,32.7-97.5
			c-4.1-43.7-26.8-82.4-53.3-116.4c-0.7,2.5-1.2,5-2,7.5c27-6.8,57.2-5.9,82.8,6c23.5,10.8,39.8,32.9,30.4,59.3
			c-9.2,25.9-34.5,40-57.7,51.3c-22,10.7-43.3,21.7-62.4,37.3c-17.9,14.6-33.6,32-46.4,51.2c-11.2,16.9-27.5,41.2-19.4,62.5
			c6.9,18.3,29,27.5,47.1,29.1c19.7,1.8,40.2-4.4,56.5-15.6c43.3-29.7,49.9-87.4,39.4-135c-1.8,1.8-3.7,3.7-5.5,5.5
			c39.4,5.3,95.1,15.6,99.8,64.7c2.3,23.1-13.5,36.4-33.4,44.2c-16.9,6.6-33.2,11.9-46,25.4c-12.4,13-20.8,29.3-33.9,41.6
			c-7.6,7.1-19.9,16-30.4,9.4c-8.5-5.3-13.9-10.8-24.5-11.7c-21-2-38.4,11-53.7,23.5c-18.7,15.1-38.2,26.5-62.2,30.7
			c-22.6,3.9-55.1,3.2-69.5-17.9c-16-23.5,2-54.5,14.9-75c2.3-3.7-1.4-6.9-5-6.6c-13.5,1.8-29.3,4.1-41.6-3.6
			c-11.5-7.1-14.2-19-7.8-30.9c9.9-18.5,33.8-37.1,55.8-32.5c21.5,4.6,29.1,29.7,24,48.9c-6,22.2-25.9,37.1-44.9,48.1
			c-5,2.8-0.5,10.5,4.4,7.6c29.8-17.2,59.9-34.3,89.7-51.5c22-12.8,44.2-28.1,48.1-55.3c4.1-28.4-10.7-54.9-24-78.7
			c-11.7-21-35.5-62.7-8.9-82.1c7.5-5.3,16.7-8.4,25.1-11.7c9.2-3.7,18.3-7.6,27.5-11.4c18.3-7.6,36.6-15.1,54.9-22.7
			c3-1.2,5-6.4,1.1-8.2c-11.4-5-22.9-5.5-34.5-0.9c-3.7,1.6-4.3,5.7-1.1,8.2c25.1,19.4,54.2,37.7,73.4,63.4
			c8.9,11.9,15.3,26.1,14.7,41.2c-0.5,16-7.8,31.1-16.5,44.2c-16.3,24.5-40,43.9-66.6,56c-30,13.7-61.1,13.5-93.5,16
			c-12.6,1.1-67.9,6.9-49.7,32c13.3,18.5,46.4,12.1,63.4,4.1c21.7-10.1,39.1-30.4,43.3-54.2c4.1-23.1-4.3-47.1-19.7-64.3
			c-21.7-24.2-52.1-27.5-82.6-22c-35.7,6.4-69.6,20.8-99.5,41.4c1.8,2.3,3.6,4.6,5.3,6.9c16.2-20.6,23.1-46.7,19.9-72.7
			c-1.4-12.3-5.2-24.2-11-35c-2.8-5.3-6.4-10.5-10.3-15.1c-2-2.3-6.6-5.9-7.3-8.7c-1.8-5.9,5.7-8.5,9.6-10.5
			c17.8-8.2,35.5-16,53.3-24c9.8-4.4,21.9-10.3,21.5-22.7c-0.2-6.2-3.9-11.7-6.4-17.2c-2.8-6-4.6-12.4-5.9-19
			c-2.1-12.8-1.1-25.9,2.7-38.4c8-27.9,29-52.1,57.2-60.2c-1.8-1.1-3.7-2.1-5.5-3c1.4,4.4-4.3,1.1-5,0.4c-1.4-1.4-2.5-3.6-3.7-5.2
			c-3.2-4.1-6.9-7.6-11-10.8c-8.7-6.6-18.8-10.8-29.7-12.3c-3.9-0.5-8,4.1-4.3,7.5c22,19.2,47.4,33.6,75.3,42.3
			c-0.7-2.5-1.2-5-2-7.5c-21.1,22.4-8.9,53.3,6.9,74.8c21.7,29.3,44.9,57.6,67.5,86.3c1.4-2.5,2.8-5,4.3-7.5
			c-53.8-8.2-106.1-24.7-154.6-49.6C171.9,215,167.3,222.6,172.4,225.1L172.4,225.1z"/>
	</g>
</g>
</svg>
